<?xml version="1.0" encoding="utf-8"?>
<!-- Generator: Adobe Illustrator 26.0.1, SVG Export Plug-In . SVG Version: 6.00 Build 0)  -->
<svg version="1.1" id="Calque_1" xmlns="http://www.w3.org/2000/svg" xmlns:xlink="http://www.w3.org/1999/xlink" x="0px" y="0px"
	 viewBox="0 0 200 150" style="enable-background:new 0 0 200 150;" xml:space="preserve">
<style type="text/css">
	.st0{fill:#1A1A1A;}
	.st1{fill:#FFFFFF;}
	.st2{fill:#B9DAE9;}
</style>
<g>
	<path class="st0" d="M17.39,51.55c0-9.91,5.3-19.09,13.88-24.05c8.58-4.96,19.18-4.96,27.77,0c8.58,4.96,13.88,14.13,13.88,24.05
		H62.61c0-6.24-3.32-11.99-8.72-15.11c-5.41-3.12-12.04-3.12-17.45,0c-5.4,3.12-8.72,8.87-8.72,15.11L17.39,51.55z M17.39,51.55"/>
	<path class="st0" d="M127.07,51.55c0-9.91,5.3-19.09,13.88-24.05c8.58-4.96,19.18-4.96,27.77,0c8.58,4.96,13.88,14.13,13.88,24.05
		h-10.32c0-6.24-3.32-11.99-8.72-15.11c-5.41-3.12-12.04-3.12-17.45,0c-5.4,3.12-8.72,8.87-8.72,15.11H127.07z M127.07,51.55"/>
	<g>
		<path class="st1" d="M71.7,76.86c-3.27,0-5.9,2.63-5.9,5.9v6.66c0,18.89,15.31,34.2,34.21,34.2c18.89,0,34.21-15.31,34.21-34.2
			v-6.66c0-3.27-2.63-5.9-5.9-5.9H71.7z M71.7,76.86"/>
		<path class="st2" d="M106.68,76.86v0.03c0,0,5.81,11.15,0,21.45c7.25,11.45,0.87,24.46,0.87,24.46
			c15.26-3.44,26.66-17.07,26.66-33.37v-6.66c0-3.27-2.63-5.9-5.9-5.9L106.68,76.86z M106.68,76.86"/>
		<path class="st0" d="M123.47,76.86v0.03c0,0,6.66,7.65,0,15.78c7.66,7.12,0.53,21.15,0.53,21.15
			c6.31-6.21,10.22-14.83,10.22-24.38v-6.66c0-3.27-2.63-5.9-5.9-5.9L123.47,76.86z M123.47,76.86"/>
		<path class="st0" d="M76.54,76.86v0.03c0,0-6.66,7.65,0,15.78c-7.66,7.12-0.53,21.15-0.53,21.15
			c-6.31-6.21-10.22-14.83-10.22-24.38v-6.66c0-3.27,2.63-5.9,5.9-5.9L76.54,76.86z M76.54,76.86"/>
		<path class="st0" d="M71.7,74.28c-4.66,0-8.48,3.83-8.48,8.48v6.66c0,20.29,16.5,36.78,36.79,36.78
			c20.29,0,36.79-16.5,36.79-36.78v-6.66c0-4.65-3.83-8.48-8.48-8.48H71.7z M71.7,79.45h56.6c1.89,0,3.32,1.44,3.32,3.32v6.66
			c0,17.5-14.13,31.62-31.62,31.62c-17.5,0-31.63-14.13-31.63-31.62v-6.66C68.37,80.88,69.81,79.45,71.7,79.45L71.7,79.45z
			 M71.7,79.45"/>
	</g>
</g>
</svg>
